<mxfile host="app.diagrams.net" modified="2024-05-23T12:56:19.347Z" agent="Mozilla/5.0 (Windows NT 10.0; Win64; x64) AppleWebKit/537.36 (KHTML, like Gecko) Chrome/125.0.0.0 Safari/537.36" etag="Bp_X-OShcQYHbi3DhIBd" version="24.4.6" type="device">
  <diagram name="Página-1" id="tc6cF6XWxGmaVXb5cMj9">
    <mxGraphModel dx="3268" dy="3076" grid="1" gridSize="10" guides="1" tooltips="1" connect="1" arrows="1" fold="1" page="0" pageScale="1" pageWidth="827" pageHeight="1169" math="0" shadow="0">
      <root>
        <mxCell id="0" />
        <mxCell id="1" parent="0" />
        <mxCell id="5MgdgxtwBg0XSnTwXucQ-3" value="" style="edgeStyle=orthogonalEdgeStyle;rounded=0;orthogonalLoop=1;jettySize=auto;html=1;" edge="1" parent="1" source="5MgdgxtwBg0XSnTwXucQ-1">
          <mxGeometry relative="1" as="geometry">
            <mxPoint x="70" y="-1080" as="targetPoint" />
          </mxGeometry>
        </mxCell>
        <mxCell id="5MgdgxtwBg0XSnTwXucQ-1" value="INÍCIO" style="ellipse;whiteSpace=wrap;html=1;fillColor=#f8cecc;strokeColor=#b85450;" vertex="1" parent="1">
          <mxGeometry x="10" y="-1250" width="120" height="80" as="geometry" />
        </mxCell>
        <mxCell id="5MgdgxtwBg0XSnTwXucQ-6" value="não" style="edgeStyle=orthogonalEdgeStyle;rounded=0;orthogonalLoop=1;jettySize=auto;html=1;" edge="1" parent="1" source="5MgdgxtwBg0XSnTwXucQ-4" target="5MgdgxtwBg0XSnTwXucQ-5">
          <mxGeometry relative="1" as="geometry" />
        </mxCell>
        <mxCell id="5MgdgxtwBg0XSnTwXucQ-8" value="sim" style="edgeStyle=orthogonalEdgeStyle;rounded=0;orthogonalLoop=1;jettySize=auto;html=1;" edge="1" parent="1" source="5MgdgxtwBg0XSnTwXucQ-4" target="5MgdgxtwBg0XSnTwXucQ-7">
          <mxGeometry relative="1" as="geometry" />
        </mxCell>
        <mxCell id="5MgdgxtwBg0XSnTwXucQ-4" value="chegada de&lt;div&gt;produto&lt;/div&gt;" style="rhombus;whiteSpace=wrap;html=1;fillColor=#d5e8d4;strokeColor=#82b366;" vertex="1" parent="1">
          <mxGeometry x="30" y="-1080" width="80" height="80" as="geometry" />
        </mxCell>
        <mxCell id="5MgdgxtwBg0XSnTwXucQ-31" value="" style="edgeStyle=orthogonalEdgeStyle;rounded=0;orthogonalLoop=1;jettySize=auto;html=1;" edge="1" parent="1" source="5MgdgxtwBg0XSnTwXucQ-5">
          <mxGeometry relative="1" as="geometry">
            <mxPoint x="370" y="-920" as="targetPoint" />
          </mxGeometry>
        </mxCell>
        <mxCell id="5MgdgxtwBg0XSnTwXucQ-5" value="Saida de produto" style="rounded=1;whiteSpace=wrap;html=1;fillColor=#dae8fc;strokeColor=#6c8ebf;" vertex="1" parent="1">
          <mxGeometry x="170" y="-1070" width="120" height="60" as="geometry" />
        </mxCell>
        <mxCell id="5MgdgxtwBg0XSnTwXucQ-17" value="" style="edgeStyle=orthogonalEdgeStyle;rounded=0;orthogonalLoop=1;jettySize=auto;html=1;" edge="1" parent="1" source="5MgdgxtwBg0XSnTwXucQ-7" target="5MgdgxtwBg0XSnTwXucQ-16">
          <mxGeometry relative="1" as="geometry" />
        </mxCell>
        <mxCell id="5MgdgxtwBg0XSnTwXucQ-7" value="Entrada de produto" style="rounded=1;whiteSpace=wrap;html=1;fillColor=#dae8fc;strokeColor=#6c8ebf;" vertex="1" parent="1">
          <mxGeometry x="10" y="-910" width="120" height="60" as="geometry" />
        </mxCell>
        <mxCell id="5MgdgxtwBg0XSnTwXucQ-19" value="não" style="edgeStyle=orthogonalEdgeStyle;rounded=0;orthogonalLoop=1;jettySize=auto;html=1;" edge="1" parent="1" source="5MgdgxtwBg0XSnTwXucQ-16" target="5MgdgxtwBg0XSnTwXucQ-18">
          <mxGeometry relative="1" as="geometry" />
        </mxCell>
        <mxCell id="5MgdgxtwBg0XSnTwXucQ-22" value="sim" style="edgeStyle=orthogonalEdgeStyle;rounded=0;orthogonalLoop=1;jettySize=auto;html=1;" edge="1" parent="1" source="5MgdgxtwBg0XSnTwXucQ-16" target="5MgdgxtwBg0XSnTwXucQ-21">
          <mxGeometry relative="1" as="geometry" />
        </mxCell>
        <mxCell id="5MgdgxtwBg0XSnTwXucQ-16" value="Dados&lt;div&gt;validos?&lt;/div&gt;" style="rhombus;whiteSpace=wrap;html=1;fillColor=#d5e8d4;strokeColor=#82b366;" vertex="1" parent="1">
          <mxGeometry x="30" y="-760" width="80" height="80" as="geometry" />
        </mxCell>
        <mxCell id="5MgdgxtwBg0XSnTwXucQ-20" style="edgeStyle=orthogonalEdgeStyle;rounded=0;orthogonalLoop=1;jettySize=auto;html=1;exitX=0.5;exitY=0;exitDx=0;exitDy=0;entryX=0;entryY=0.5;entryDx=0;entryDy=0;" edge="1" parent="1" source="5MgdgxtwBg0XSnTwXucQ-18" target="5MgdgxtwBg0XSnTwXucQ-7">
          <mxGeometry relative="1" as="geometry" />
        </mxCell>
        <mxCell id="5MgdgxtwBg0XSnTwXucQ-18" value="Mostrar erro" style="rounded=1;whiteSpace=wrap;html=1;fillColor=#fff2cc;strokeColor=#d6b656;" vertex="1" parent="1">
          <mxGeometry x="-200" y="-830" width="120" height="60" as="geometry" />
        </mxCell>
        <mxCell id="5MgdgxtwBg0XSnTwXucQ-39" style="edgeStyle=orthogonalEdgeStyle;rounded=0;orthogonalLoop=1;jettySize=auto;html=1;exitX=0.5;exitY=1;exitDx=0;exitDy=0;entryX=0;entryY=0.5;entryDx=0;entryDy=0;" edge="1" parent="1" source="5MgdgxtwBg0XSnTwXucQ-21" target="5MgdgxtwBg0XSnTwXucQ-23">
          <mxGeometry relative="1" as="geometry" />
        </mxCell>
        <mxCell id="5MgdgxtwBg0XSnTwXucQ-21" value="Agregar ao estoque" style="rounded=1;whiteSpace=wrap;html=1;fillColor=#dae8fc;strokeColor=#6c8ebf;" vertex="1" parent="1">
          <mxGeometry x="10" y="-590" width="120" height="60" as="geometry" />
        </mxCell>
        <mxCell id="5MgdgxtwBg0XSnTwXucQ-44" value="" style="edgeStyle=orthogonalEdgeStyle;rounded=0;orthogonalLoop=1;jettySize=auto;html=1;" edge="1" parent="1" source="5MgdgxtwBg0XSnTwXucQ-23" target="5MgdgxtwBg0XSnTwXucQ-25">
          <mxGeometry relative="1" as="geometry" />
        </mxCell>
        <mxCell id="5MgdgxtwBg0XSnTwXucQ-23" value="Fazer listagem" style="rounded=1;whiteSpace=wrap;html=1;fillColor=#dae8fc;strokeColor=#6c8ebf;" vertex="1" parent="1">
          <mxGeometry x="210" y="-450" width="120" height="60" as="geometry" />
        </mxCell>
        <mxCell id="5MgdgxtwBg0XSnTwXucQ-45" value="" style="edgeStyle=orthogonalEdgeStyle;rounded=0;orthogonalLoop=1;jettySize=auto;html=1;" edge="1" parent="1" source="5MgdgxtwBg0XSnTwXucQ-25" target="5MgdgxtwBg0XSnTwXucQ-27">
          <mxGeometry relative="1" as="geometry" />
        </mxCell>
        <mxCell id="5MgdgxtwBg0XSnTwXucQ-25" value="Mostrar sucesso!" style="rounded=1;whiteSpace=wrap;html=1;fillColor=#e1d5e7;strokeColor=#9673a6;" vertex="1" parent="1">
          <mxGeometry x="210" y="-310" width="120" height="60" as="geometry" />
        </mxCell>
        <mxCell id="5MgdgxtwBg0XSnTwXucQ-27" value="FIM" style="ellipse;whiteSpace=wrap;html=1;fillColor=#f8cecc;strokeColor=#b85450;" vertex="1" parent="1">
          <mxGeometry x="210" y="-170" width="120" height="80" as="geometry" />
        </mxCell>
        <mxCell id="5MgdgxtwBg0XSnTwXucQ-34" value="não" style="edgeStyle=orthogonalEdgeStyle;rounded=0;orthogonalLoop=1;jettySize=auto;html=1;" edge="1" parent="1" source="5MgdgxtwBg0XSnTwXucQ-32" target="5MgdgxtwBg0XSnTwXucQ-33">
          <mxGeometry relative="1" as="geometry" />
        </mxCell>
        <mxCell id="5MgdgxtwBg0XSnTwXucQ-37" value="" style="edgeStyle=orthogonalEdgeStyle;rounded=0;orthogonalLoop=1;jettySize=auto;html=1;" edge="1" parent="1" source="5MgdgxtwBg0XSnTwXucQ-32" target="5MgdgxtwBg0XSnTwXucQ-36">
          <mxGeometry relative="1" as="geometry" />
        </mxCell>
        <mxCell id="5MgdgxtwBg0XSnTwXucQ-32" value="Dados validos?" style="rhombus;whiteSpace=wrap;html=1;fillColor=#d5e8d4;strokeColor=#82b366;" vertex="1" parent="1">
          <mxGeometry x="330" y="-920" width="80" height="80" as="geometry" />
        </mxCell>
        <mxCell id="5MgdgxtwBg0XSnTwXucQ-35" style="edgeStyle=orthogonalEdgeStyle;rounded=0;orthogonalLoop=1;jettySize=auto;html=1;exitX=0.5;exitY=0;exitDx=0;exitDy=0;entryX=1;entryY=0.25;entryDx=0;entryDy=0;" edge="1" parent="1" source="5MgdgxtwBg0XSnTwXucQ-33" target="5MgdgxtwBg0XSnTwXucQ-5">
          <mxGeometry relative="1" as="geometry" />
        </mxCell>
        <mxCell id="5MgdgxtwBg0XSnTwXucQ-33" value="Mostrar erro" style="rounded=1;whiteSpace=wrap;html=1;fillColor=#fff2cc;strokeColor=#d6b656;" vertex="1" parent="1">
          <mxGeometry x="480" y="-1010" width="120" height="60" as="geometry" />
        </mxCell>
        <mxCell id="5MgdgxtwBg0XSnTwXucQ-41" style="edgeStyle=orthogonalEdgeStyle;rounded=0;orthogonalLoop=1;jettySize=auto;html=1;exitX=0;exitY=0.5;exitDx=0;exitDy=0;entryX=0.5;entryY=0;entryDx=0;entryDy=0;" edge="1" parent="1" source="5MgdgxtwBg0XSnTwXucQ-36" target="5MgdgxtwBg0XSnTwXucQ-23">
          <mxGeometry relative="1" as="geometry" />
        </mxCell>
        <mxCell id="5MgdgxtwBg0XSnTwXucQ-36" value="Preparar para a entrega" style="rounded=1;whiteSpace=wrap;html=1;fillColor=#dae8fc;strokeColor=#6c8ebf;" vertex="1" parent="1">
          <mxGeometry x="310" y="-750" width="120" height="60" as="geometry" />
        </mxCell>
      </root>
    </mxGraphModel>
  </diagram>
</mxfile>
